<svg id="Google_Cloud" data-name="Google Cloud" xmlns="http://www.w3.org/2000/svg" xmlns:xlink="http://www.w3.org/1999/xlink" width="90.593" height="16" viewBox="0 0 90.593 16">
  <defs>
    <clipPath id="clip-path">
      <rect id="Rectangle_2780" data-name="Rectangle 2780" width="90.593" height="16" fill="none"/>
    </clipPath>
  </defs>
  <g id="Group_2935" data-name="Group 2935" clip-path="url(#clip-path)">
    <path id="Path_15995" data-name="Path 15995" d="M415.107,18.766a5.588,5.588,0,0,1-5.707-5.733,5.57,5.57,0,0,1,1.629-4.078A5.451,5.451,0,0,1,415.107,7.3a5.084,5.084,0,0,1,4.026,1.785l-1.016.977a3.715,3.715,0,0,0-3.01-1.42,4.135,4.135,0,0,0-3.049,1.225,4.272,4.272,0,0,0-1.212,3.153,4.272,4.272,0,0,0,1.212,3.153,4.135,4.135,0,0,0,3.049,1.225,4.292,4.292,0,0,0,3.322-1.6l1.029.99a5.257,5.257,0,0,1-1.915,1.446,5.507,5.507,0,0,1-2.436.534m6.684-.248h-1.407V7.561h1.407Zm1.016-3.752a4,4,0,0,1,1.081-2.866,3.693,3.693,0,0,1,2.775-1.134,3.635,3.635,0,0,1,2.749,1.134,3.962,3.962,0,0,1,1.108,2.866,3.889,3.889,0,0,1-1.108,2.866,3.655,3.655,0,0,1-2.749,1.134,3.733,3.733,0,0,1-2.775-1.134,4.019,4.019,0,0,1-1.081-2.866m1.407,0a2.725,2.725,0,0,0,.7,1.954,2.326,2.326,0,0,0,1.746.756,2.28,2.28,0,0,0,1.746-.756,2.746,2.746,0,0,0,.7-1.954,2.714,2.714,0,0,0-.7-1.941,2.367,2.367,0,0,0-3.492,0,2.714,2.714,0,0,0-.7,1.941m13.9,3.752h-1.342V17.476h-.065a2.415,2.415,0,0,1-.99.912,2.957,2.957,0,0,1-1.381.365,2.762,2.762,0,0,1-2.124-.795,3.144,3.144,0,0,1-.743-2.241V11h1.407v4.625a1.654,1.654,0,0,0,1.85,1.837,1.751,1.751,0,0,0,1.407-.678,2.475,2.475,0,0,0,.56-1.629V11.013H438.1v7.5Zm4.573.248a3.323,3.323,0,0,1-2.528-1.16,4.144,4.144,0,0,1-1.042-2.827,4.144,4.144,0,0,1,1.042-2.827,3.364,3.364,0,0,1,4.039-.808,2.527,2.527,0,0,1,1.042.938h.065l-.065-1.042V7.574h1.407V18.531h-1.342V17.489h-.065a2.7,2.7,0,0,1-1.042.938,3.43,3.43,0,0,1-1.511.339m.222-1.29a2.117,2.117,0,0,0,1.694-.756,2.8,2.8,0,0,0,.691-1.954,2.809,2.809,0,0,0-.691-1.941,2.25,2.25,0,0,0-3.388,0,2.809,2.809,0,0,0-.691,1.941,2.764,2.764,0,0,0,.691,1.941,2.2,2.2,0,0,0,1.694.769" transform="translate(-356.058 -6.349)" fill="#fff"/>
    <path id="Path_15996" data-name="Path 15996" d="M6.332,7.362V5.668H12a6.084,6.084,0,0,1,.091,1.042,5.585,5.585,0,0,1-1.472,3.961,5.678,5.678,0,0,1-4.326,1.746A6.307,6.307,0,0,1,0,6.2,6.3,6.3,0,0,1,6.293,0a5.925,5.925,0,0,1,4.248,1.707l-1.2,1.2A4.341,4.341,0,0,0,6.28,1.694,4.438,4.438,0,0,0,1.837,6.2,4.446,4.446,0,0,0,6.28,10.71,4.151,4.151,0,0,0,9.407,9.472a3.572,3.572,0,0,0,.925-2.111Z" transform="translate(0)" fill="#fff"/>
    <path id="Path_15997" data-name="Path 15997" d="M105.526,37.9a4.013,4.013,0,1,1-4.013-4,3.947,3.947,0,0,1,4.013,4m-1.746,0a2.26,2.26,0,1,0-2.254,2.423A2.305,2.305,0,0,0,103.78,37.9" transform="translate(-84.796 -29.483)" fill="#fff"/>
    <path id="Path_15998" data-name="Path 15998" d="M172.726,37.9a4.013,4.013,0,1,1-4.013-4,3.947,3.947,0,0,1,4.013,4m-1.759,0a2.26,2.26,0,1,0-2.254,2.423,2.305,2.305,0,0,0,2.254-2.423" transform="translate(-143.241 -29.483)" fill="#fff"/>
    <path id="Path_15999" data-name="Path 15999" d="M239.461,34.235v7.179c0,2.945-1.746,4.156-3.792,4.156a3.815,3.815,0,0,1-3.544-2.358l1.524-.638a2.207,2.207,0,0,0,2.007,1.42,2.05,2.05,0,0,0,2.137-2.345v-.573h-.065a2.719,2.719,0,0,1-2.1.912,4,4,0,0,1,0-7.987,2.757,2.757,0,0,1,2.1.9h.065v-.651h1.668ZM237.924,38a2.252,2.252,0,0,0-2.137-2.436,2.432,2.432,0,0,0,0,4.847A2.236,2.236,0,0,0,237.924,38" transform="translate(-201.598 -29.57)" fill="#fff"/>
    <rect id="Rectangle_2779" data-name="Rectangle 2779" width="1.746" height="11.7" transform="translate(39.088 0.469)" fill="#fff"/>
    <path id="Path_16000" data-name="Path 16000" d="M325.915,39.216l1.368.912a3.976,3.976,0,0,1-3.323,1.772,3.911,3.911,0,0,1-3.961-4,3.8,3.8,0,0,1,3.765-4,3.7,3.7,0,0,1,3.414,2.541l.182.456-5.342,2.215a2.02,2.02,0,0,0,1.941,1.212,2.26,2.26,0,0,0,1.954-1.107m-4.182-1.446,3.57-1.485a1.548,1.548,0,0,0-1.485-.847,2.2,2.2,0,0,0-2.085,2.332" transform="translate(-278.306 -29.483)" fill="#fff"/>
  </g>
</svg>
