<svg xmlns="http://www.w3.org/2000/svg" xmlns:xlink="http://www.w3.org/1999/xlink" width="37.104" height="22.262" viewBox="0 0 37.104 22.262">
  <defs>
    <clipPath id="clip-path">
      <path id="Path_15842" data-name="Path 15842" d="M6,4V26.262H43.1V4Z" transform="translate(-6 -4)" fill="none"/>
    </clipPath>
  </defs>
  <g id="Logo-AWS-202009-Horizontal-RGB-Reverse" clip-path="url(#clip-path)">
    <path id="Path_15839" data-name="Path 15839" d="M84.4,12.049a3.5,3.5,0,0,0,.14,1.1,5.723,5.723,0,0,0,.4.885.577.577,0,0,1,.086.281.473.473,0,0,1-.238.367l-.777.518a.615.615,0,0,1-.324.108.516.516,0,0,1-.367-.173,2.824,2.824,0,0,1-.444-.571q-.184-.312-.378-.723a4.561,4.561,0,0,1-3.627,1.706,3.372,3.372,0,0,1-2.461-.885,3.168,3.168,0,0,1-.907-2.376,3.174,3.174,0,0,1,1.122-2.536,4.5,4.5,0,0,1,3.023-.961,9.269,9.269,0,0,1,1.306.1q.68.1,1.414.269V8.25a2.707,2.707,0,0,0-.583-1.975A2.832,2.832,0,0,0,79.775,5.7a5.735,5.735,0,0,0-1.328.162,9.509,9.509,0,0,0-1.328.422,3.43,3.43,0,0,1-.432.162.887.887,0,0,1-.194.032q-.259,0-.259-.388v-.6a.807.807,0,0,1,.087-.432.9.9,0,0,1,.345-.259,8.046,8.046,0,0,1,1.555-.561A7.562,7.562,0,0,1,80.142,4,4.471,4.471,0,0,1,83.37,5,4.07,4.07,0,0,1,84.4,8.033V12.05Zm-5.009,1.878a3.973,3.973,0,0,0,1.274-.227,2.692,2.692,0,0,0,1.166-.788,1.946,1.946,0,0,0,.421-.788,4.2,4.2,0,0,0,.119-1.069v-.518a10.685,10.685,0,0,0-1.134-.205,9.17,9.17,0,0,0-1.155-.076,2.85,2.85,0,0,0-1.835.5,1.739,1.739,0,0,0-.6,1.425,1.746,1.746,0,0,0,.454,1.306,1.779,1.779,0,0,0,1.3.443ZM89.3,15.266a.766.766,0,0,1-.475-.119.968.968,0,0,1-.259-.486L85.67,5.118a2.171,2.171,0,0,1-.108-.5.267.267,0,0,1,.3-.3h1.209a.765.765,0,0,1,.486.119,1.028,1.028,0,0,1,.248.486l2.073,8.162L91.8,4.924a.865.865,0,0,1,.238-.486.814.814,0,0,1,.5-.119h.993a.817.817,0,0,1,.5.119.865.865,0,0,1,.237.486l1.943,8.27,2.137-8.27a1.031,1.031,0,0,1,.248-.486.764.764,0,0,1,.486-.119h1.145a.267.267,0,0,1,.3.3,1.018,1.018,0,0,1-.021.194,2.722,2.722,0,0,1-.087.3l-2.98,9.544a.967.967,0,0,1-.259.486.771.771,0,0,1-.475.119H95.645a.761.761,0,0,1-.5-.129.936.936,0,0,1-.237-.5L92.989,6.694l-1.9,7.946a.933.933,0,0,1-.238.5.764.764,0,0,1-.5.129Zm15.848.324a8.365,8.365,0,0,1-1.9-.216,5.508,5.508,0,0,1-1.425-.5.717.717,0,0,1-.453-.691V13.56q0-.388.281-.388a.671.671,0,0,1,.227.043q.119.044.314.129a6.489,6.489,0,0,0,1.36.432,7.247,7.247,0,0,0,1.468.151,3.327,3.327,0,0,0,1.8-.41,1.309,1.309,0,0,0,.637-1.167,1.191,1.191,0,0,0-.335-.864,3.175,3.175,0,0,0-1.242-.647l-1.792-.561a3.823,3.823,0,0,1-1.975-1.252,2.926,2.926,0,0,1-.615-1.792,2.745,2.745,0,0,1,.335-1.371,3.311,3.311,0,0,1,.884-1.015A3.911,3.911,0,0,1,104,4.211,5.493,5.493,0,0,1,105.556,4a6.549,6.549,0,0,1,.83.054q.421.054.8.14t.7.194a3.176,3.176,0,0,1,.518.216,1.181,1.181,0,0,1,.367.3.69.69,0,0,1,.108.41V5.9c0,.259-.094.389-.281.389a1.305,1.305,0,0,1-.475-.151,5.745,5.745,0,0,0-2.375-.475A3.236,3.236,0,0,0,104.108,6a1.186,1.186,0,0,0-.583,1.1,1.174,1.174,0,0,0,.367.875,3.642,3.642,0,0,0,1.36.68L107,9.222a3.773,3.773,0,0,1,1.911,1.188,2.783,2.783,0,0,1,.572,1.728,3.126,3.126,0,0,1-.324,1.436,3.27,3.27,0,0,1-.9,1.09,4.028,4.028,0,0,1-1.371.691,6.118,6.118,0,0,1-1.749.237Z" transform="translate(-73.94 -3.996)" fill="#fff"/>
    <path id="Path_15840" data-name="Path 15840" d="M39.542,659.248a26.6,26.6,0,0,1-15.023,4.592,27.189,27.189,0,0,1-18.351-7c-.38-.344-.041-.812.416-.547a36.939,36.939,0,0,0,18.362,4.872A36.525,36.525,0,0,0,38.952,658.3C39.638,658.007,40.214,658.751,39.542,659.248Z" transform="translate(-6.004 -641.578)" fill="#f89628" fill-rule="evenodd"/>
    <path id="Path_15841" data-name="Path 15841" d="M1354.486,625.532c-.52-.665-3.434-.314-4.744-.157-.4.048-.458-.3-.1-.55,2.325-1.633,6.135-1.162,6.578-.615s-.118,4.371-2.3,6.194c-.337.28-.654.131-.506-.239.491-1.225,1.588-3.966,1.068-4.632Z" transform="translate(-1319.257 -609.792)" fill="#f89628" fill-rule="evenodd"/>
  </g>
</svg>
